<svg width="82" height="64" viewBox="0 0 82 64" fill="none" xmlns="http://www.w3.org/2000/svg">
<path d="M39.888 16.9531C40.1693 16.6719 40.5912 16.5312 41.013 16.5312C41.2943 16.5312 41.7162 16.6719 41.9974 16.9531L68.013 38.1875V61.25C68.013 62.5156 66.888 63.5 65.763 63.5H49.8724C48.7474 63.5 47.6224 62.5156 47.6224 61.25V47.75C47.6224 46.625 46.638 45.5 45.3724 45.5H36.3724C35.2474 45.5 34.1224 46.625 34.1224 47.75V61.25C34.1224 62.5156 33.138 63.5 32.013 63.5H16.263C14.9974 63.5 14.013 62.5156 14.013 61.25V38.3281L39.888 16.9531ZM80.8099 31.4375C81.2318 31.7188 81.513 32.2812 81.513 32.7031C81.513 33.125 81.3724 33.5469 81.0912 33.8281L77.4349 38.1875C77.1537 38.6094 76.7318 38.75 76.1693 38.75C75.7474 38.75 75.3255 38.6094 75.0443 38.3281L41.9974 11.1875C41.7162 10.9062 41.2943 10.7656 41.013 10.7656C40.5912 10.7656 40.1693 10.9062 39.888 11.1875L6.84117 38.3281C6.55992 38.6094 6.13805 38.75 5.71617 38.75C5.15367 38.75 4.7318 38.6094 4.45055 38.1875L0.794296 33.8281C0.653671 33.5469 0.372421 33.125 0.372421 32.7031C0.372421 32.2812 0.653671 31.7188 1.07555 31.4375L36.6537 2.04688C37.7787 1.20312 39.3255 0.640625 41.013 0.640625C42.5599 0.640625 44.1068 1.20312 45.2318 2.04688L57.888 12.4531V2.32812C57.888 1.34375 58.5912 0.640625 59.5755 0.640625H67.4505C68.2943 0.640625 69.138 1.34375 69.138 2.32812V21.7344L80.8099 31.4375Z" fill="#00A887"/>
</svg>
