<svg width="64" height="73" viewBox="0 0 64 73" fill="none" xmlns="http://www.w3.org/2000/svg">
<path d="M56.928 0.5C60.4436 0.5 63.678 3.73438 63.678 7.25V65.75C63.678 69.4062 60.4436 72.5 56.928 72.5H7.42797C3.77172 72.5 0.677975 69.4062 0.677975 65.75V7.25C0.677975 3.73438 3.77172 0.5 7.42797 0.5H56.928ZM18.678 61.8125V56.3281C18.678 55.4844 17.6936 54.5 16.8498 54.5H11.3655C10.5217 54.5 9.67797 55.4844 9.67797 56.3281V61.8125C9.67797 62.6562 10.5217 63.5 11.3655 63.5H16.8498C17.6936 63.5 18.678 62.6562 18.678 61.8125ZM18.678 43.8125V38.3281C18.678 37.4844 17.6936 36.5 16.8498 36.5H11.3655C10.5217 36.5 9.67797 37.4844 9.67797 38.3281V43.8125C9.67797 44.6562 10.5217 45.5 11.3655 45.5H16.8498C17.6936 45.5 18.678 44.6562 18.678 43.8125ZM36.678 61.8125V56.3281C36.678 55.4844 35.6936 54.5 34.8498 54.5H29.3655C28.5217 54.5 27.678 55.4844 27.678 56.3281V61.8125C27.678 62.6562 28.5217 63.5 29.3655 63.5H34.8498C35.6936 63.5 36.678 62.6562 36.678 61.8125ZM36.678 43.8125V38.3281C36.678 37.4844 35.6936 36.5 34.8498 36.5H29.3655C28.5217 36.5 27.678 37.4844 27.678 38.3281V43.8125C27.678 44.6562 28.5217 45.5 29.3655 45.5H34.8498C35.6936 45.5 36.678 44.6562 36.678 43.8125ZM54.678 61.8125V38.3281C54.678 37.4844 53.6936 36.5 52.8498 36.5H47.3655C46.5217 36.5 45.678 37.4844 45.678 38.3281V61.8125C45.678 62.6562 46.5217 63.5 47.3655 63.5H52.8498C53.6936 63.5 54.678 62.6562 54.678 61.8125ZM54.678 25.8125V11.3281C54.678 10.4844 53.6936 9.5 52.8498 9.5H11.3655C10.5217 9.5 9.67797 10.4844 9.67797 11.3281V25.8125C9.67797 26.6562 10.5217 27.5 11.3655 27.5H52.8498C53.6936 27.5 54.678 26.6562 54.678 25.8125Z" fill="#00A887"/>
</svg>
