<svg width="82" height="73" viewBox="0 0 82 73" fill="none" xmlns="http://www.w3.org/2000/svg">
<path d="M77.7782 9.5C79.6063 9.5 81.1532 11.0469 81.1532 12.875V20.75C81.1532 25.8125 77.9188 31.0156 72.4344 34.9531C67.9344 38.1875 62.5907 40.1562 56.9657 40.8594C52.4657 48.1719 47.4032 51.125 47.4032 51.125V61.25H54.1532C59.0751 61.25 63.1532 64.2031 63.1532 69.125V70.8125C63.1532 71.7969 62.3094 72.5 61.4657 72.5H19.8407C18.8563 72.5 18.1532 71.7969 18.1532 70.8125V69.125C18.1532 64.2031 22.0907 61.25 27.1532 61.25H33.9032V51.125C33.9032 51.125 28.7001 48.1719 24.2001 40.8594C18.5751 40.1562 13.2313 38.1875 8.73131 34.9531C3.24693 31.0156 0.153183 25.8125 0.153183 20.75V12.875C0.153183 11.0469 1.55943 9.5 3.52818 9.5H18.1532V3.875C18.1532 2.04688 19.5594 0.5 21.5282 0.5H59.7782C61.6063 0.5 63.1532 2.04688 63.1532 3.875V9.5H77.7782ZM14.0751 27.6406C15.7626 28.9062 17.7313 29.8906 19.9813 30.7344C18.9969 27.2188 18.2938 23.1406 18.1532 18.5H9.15318V20.75C9.15318 22.4375 10.5594 25.25 14.0751 27.6406ZM72.1532 20.75V18.5H63.0126C62.8719 23.1406 62.1688 27.2188 61.1844 30.7344C63.4344 29.8906 65.4032 28.9062 67.0907 27.6406C69.6219 25.9531 72.1532 23.1406 72.1532 20.75Z" fill="#00A887"/>
</svg>
